<svg width="72" height="20" viewBox="0 0 72 20" fill="none" xmlns="http://www.w3.org/2000/svg">
<path d="M0.0546875 18.9766L0 17.9375L1.33984 17.5547L6.97266 3.39062L8.55859 2.43359L14.5195 17.5547L15.8867 17.9375L15.8047 18.9766H10.2812L10.2266 17.9375L11.8945 17.5547L10.2812 13.5078L9.98047 12.6602L7 5.22266L7.62891 4.86719L4.78516 12.6602L4.48438 13.4805L3.03516 17.5547L4.70312 17.9375L4.64844 18.9766H0.0546875ZM3.88281 13.918V12.4688C4.22917 12.487 4.70312 12.5052 5.30469 12.5234C5.90625 12.5417 6.64453 12.5508 7.51953 12.5508C8.3763 12.5508 9.10547 12.5417 9.70703 12.5234C10.3268 12.5052 10.8008 12.487 11.1289 12.4688V13.918C10.5091 13.8997 9.88932 13.8906 9.26953 13.8906C8.66797 13.8724 8.08464 13.8633 7.51953 13.8633C6.97266 13.8633 6.39844 13.8724 5.79688 13.8906C5.21354 13.8906 4.57552 13.8997 3.88281 13.918Z" fill="black"/>
<path d="M20.6461 19.1953C19.9716 19.1953 19.2971 19.1224 18.6227 18.9766C17.9482 18.8125 17.374 18.6029 16.9 18.3477L16.7633 15.4219H18.1031L18.65 17.3906C19.288 17.8281 20.0172 18.0469 20.8375 18.0469C21.4573 18.0469 21.9586 17.901 22.3414 17.6094C22.7242 17.2995 22.9156 16.8893 22.9156 16.3789C22.9156 15.9049 22.7424 15.4948 22.3961 15.1484C22.0497 14.7839 21.3753 14.3919 20.3727 13.9727C19.0784 13.4076 18.1669 12.8698 17.6383 12.3594C17.1096 11.8307 16.8453 11.1562 16.8453 10.3359C16.8453 9.67969 17.0367 9.10547 17.4195 8.61328C17.8206 8.10286 18.3674 7.71094 19.0602 7.4375C19.7529 7.14583 20.5549 7 21.4664 7C21.9768 7 22.4964 7.04557 23.025 7.13672C23.5536 7.22786 23.9911 7.34635 24.3375 7.49219L24.6383 10.3359H23.3531L22.6969 8.47656C22.5146 8.36719 22.2958 8.28516 22.0406 8.23047C21.7854 8.15755 21.512 8.12109 21.2203 8.12109C20.5823 8.12109 20.0719 8.27604 19.6891 8.58594C19.3062 8.8776 19.1148 9.26042 19.1148 9.73438C19.1148 10.2812 19.3245 10.7279 19.7437 11.0742C20.163 11.4023 20.9013 11.8125 21.9586 12.3047C23.1617 12.8516 24.0003 13.3893 24.4742 13.918C24.9482 14.4466 25.1852 15.0846 25.1852 15.832C25.1852 16.8164 24.7568 17.6276 23.9 18.2656C23.0432 18.8854 21.9586 19.1953 20.6461 19.1953Z" fill="black"/>
<path d="M26.6633 18.9766L26.6086 17.9922L28.1672 17.582C28.1854 17.3997 28.2036 17.1081 28.2219 16.707C28.2401 16.2878 28.2583 15.7682 28.2766 15.1484C28.2948 14.5104 28.3039 13.7995 28.3039 13.0156V9.05078C28.3039 8.35807 28.2948 7.65625 28.2766 6.94531C28.2766 6.21615 28.2674 5.52344 28.2492 4.86719C28.2492 4.21094 28.2401 3.65495 28.2219 3.19922C28.2036 2.74349 28.1945 2.43359 28.1945 2.26953L26.1711 1.99609L26.1164 1.12109L29.9719 0L30.5187 0.382812C30.5005 1.0026 30.4823 1.61328 30.4641 2.21484C30.4458 2.79818 30.4276 3.40885 30.4094 4.04688C30.3911 4.66667 30.382 5.33203 30.382 6.04297C30.382 6.73568 30.382 7.49219 30.382 8.3125L30.3547 15.0117C30.3547 15.4857 30.3638 15.9049 30.382 16.2695C30.4003 16.6159 30.4185 16.8984 30.4367 17.1172C30.4549 17.3359 30.4641 17.4909 30.4641 17.582L32.1594 17.9922L32.1047 18.9766H26.6633ZM38.9133 18.9766H35.7961C35.468 18.5391 35.2128 18.2109 35.0305 17.9922C34.8482 17.7734 34.6568 17.5638 34.4562 17.3633L30.7102 13.2891H29.9445L29.9719 12.6328L31.0109 12.332L34.8117 8.55859L33.007 8.23047L33.0617 7.21875H38.5578L38.6125 8.23047L36.8078 8.55859L31.9133 12.9609L32.3234 11.9766L36.1789 16.1328C36.4159 16.3698 36.6802 16.6432 36.9719 16.9531C37.2818 17.263 37.5461 17.5182 37.7648 17.7188L38.9953 17.9648L38.9133 18.9766Z" fill="black"/>
<path d="M43.182 18.9766L43.1273 17.9375L44.4672 17.5547L50.1 3.39062L51.6859 2.43359L57.6469 17.5547L59.0141 17.9375L58.932 18.9766H53.4086L53.3539 17.9375L55.0219 17.5547L53.4086 13.5078L53.1078 12.6602L50.1273 5.22266L50.7562 4.86719L47.9125 12.6602L47.6117 13.4805L46.1625 17.5547L47.8305 17.9375L47.7758 18.9766H43.182ZM47.0102 13.918V12.4688C47.3565 12.487 47.8305 12.5052 48.432 12.5234C49.0336 12.5417 49.7719 12.5508 50.6469 12.5508C51.5036 12.5508 52.2328 12.5417 52.8344 12.5234C53.4542 12.5052 53.9281 12.487 54.2562 12.4688V13.918C53.6365 13.8997 53.0167 13.8906 52.3969 13.8906C51.7953 13.8724 51.212 13.8633 50.6469 13.8633C50.1 13.8633 49.5258 13.8724 48.9242 13.8906C48.3409 13.8906 47.7029 13.8997 47.0102 13.918Z" fill="black"/>
<path d="M59.1797 18.9766L59.125 17.9648L60.9023 17.582C60.9388 17.3997 60.9661 17.099 60.9844 16.6797C61.0026 16.2604 61.0117 15.7044 61.0117 15.0117C61.0299 14.319 61.0391 13.4714 61.0391 12.4688V9.05078C61.0391 8.35807 61.0299 7.64714 61.0117 6.91797C61.0117 6.1888 61.0026 5.50521 60.9844 4.86719C60.9844 4.21094 60.9753 3.65495 60.957 3.19922C60.957 2.72526 60.9479 2.41536 60.9297 2.26953L58.9062 1.99609L58.8516 1.12109L62.7617 0L63.2812 0.382812C63.263 1.14844 63.2448 1.91406 63.2266 2.67969C63.2083 3.44531 63.1901 4.29297 63.1719 5.22266C63.1719 6.15234 63.1719 7.27344 63.1719 8.58594L63.1445 12.9883C63.1445 14.0638 63.1536 15.0391 63.1719 15.9141C63.2083 16.7708 63.2448 17.3268 63.2812 17.582L65.0586 17.9648L65.0039 18.9766H59.1797Z" fill="black"/>
<path d="M65.9078 18.9766L65.8531 17.9648L67.6852 17.582C67.7034 17.5091 67.7125 17.3815 67.7125 17.1992C67.7307 17.0169 67.749 16.7253 67.7672 16.3242C67.7854 15.9232 67.7945 15.3672 67.7945 14.6562V12.8516C67.7945 12.1042 67.7763 11.4206 67.7398 10.8008C67.7034 10.181 67.6578 9.69792 67.6031 9.35156L65.7711 8.96875V8.06641L69.6539 7.05469L70.0641 7.4375C70.0094 8.0026 69.9638 8.55859 69.9273 9.10547C69.9091 9.65234 69.9 10.2904 69.9 11.0195V14.4648C69.9 15.3034 69.9091 15.9961 69.9273 16.543C69.9638 17.0898 70.0003 17.4362 70.0367 17.582L71.8688 17.9648L71.8141 18.9766H65.9078ZM68.8609 3.96484C68.4052 3.96484 68.0042 3.8099 67.6578 3.5C67.3297 3.1901 67.1656 2.80729 67.1656 2.35156C67.1656 1.89583 67.3297 1.51302 67.6578 1.20312C68.0042 0.893229 68.4052 0.738281 68.8609 0.738281C69.3349 0.738281 69.7268 0.893229 70.0367 1.20312C70.3466 1.51302 70.5016 1.89583 70.5016 2.35156C70.5016 2.80729 70.3466 3.1901 70.0367 3.5C69.7268 3.8099 69.3349 3.96484 68.8609 3.96484Z" fill="black"/>
</svg>
