<svg width="76" height="20" viewBox="0 0 76 20" fill="none" xmlns="http://www.w3.org/2000/svg">
<path d="M0.0820312 19.0312L0 17.7734L1.39453 17.3633L6.97266 3.66406L9.02344 2.48828L15.2031 17.3633L16.5977 17.7734L16.5156 19.0312H9.81641L9.73438 17.7734L11.457 17.3633L9.92578 13.6445L9.625 12.7422L6.80859 5.96094L7.54688 5.98828L5.08594 12.6875L4.8125 13.5078L3.47266 17.3633L5.19531 17.7734L5.11328 19.0312H0.0820312ZM4.23828 14.2461V12.5234C4.58464 12.5417 5.00391 12.569 5.49609 12.6055C6.00651 12.6237 6.65365 12.6328 7.4375 12.6328C8.20312 12.6328 8.84115 12.6237 9.35156 12.6055C9.88021 12.569 10.3086 12.5417 10.6367 12.5234V14.2188C10.1992 14.2188 9.71615 14.2096 9.1875 14.1914C8.67708 14.1732 8.09375 14.1641 7.4375 14.1641C6.78125 14.1641 6.19792 14.1732 5.6875 14.1914C5.17708 14.2096 4.69401 14.2279 4.23828 14.2461Z" fill="currentColor"/>
<path d="M21.1109 19.25C20.3818 19.25 19.6526 19.168 18.9234 19.0039C18.1943 18.8398 17.5836 18.6211 17.0914 18.3477L16.9547 15.2305H18.568L19.1422 17.1992C19.7984 17.6185 20.5185 17.8281 21.3023 17.8281C21.8857 17.8281 22.3414 17.7005 22.6695 17.4453C22.9977 17.1901 23.1617 16.8529 23.1617 16.4336C23.1617 15.9961 22.9977 15.6224 22.6695 15.3125C22.3414 15.0026 21.676 14.6562 20.6734 14.2734C19.3427 13.763 18.413 13.2253 17.8844 12.6602C17.3557 12.0951 17.0914 11.3841 17.0914 10.5273C17.0914 9.81641 17.3102 9.1875 17.7477 8.64062C18.1852 8.09375 18.7867 7.66536 19.5523 7.35547C20.3362 7.04557 21.2385 6.89062 22.2594 6.89062C22.8245 6.89062 23.3896 6.94531 23.9547 7.05469C24.538 7.14583 25.0211 7.28255 25.4039 7.46484L25.7047 10.5273H24.1187L23.4898 8.61328C23.3076 8.50391 23.0888 8.42188 22.8336 8.36719C22.5784 8.29427 22.3232 8.25781 22.068 8.25781C21.4846 8.25781 21.0107 8.39453 20.6461 8.66797C20.2997 8.92318 20.1266 9.26042 20.1266 9.67969C20.1266 10.1354 20.3271 10.5182 20.7281 10.8281C21.1474 11.138 21.8857 11.5208 22.943 11.9766C24.1461 12.487 24.9937 13.0156 25.4859 13.5625C25.9964 14.1094 26.2516 14.7839 26.2516 15.5859C26.2516 16.6797 25.7685 17.5638 24.8023 18.2383C23.8544 18.9128 22.624 19.25 21.1109 19.25Z" fill="currentColor"/>
<path d="M27.1281 19.0312L27.0461 17.8555L28.6047 17.418C28.6411 17.2357 28.6685 16.9076 28.6867 16.4336C28.7232 15.9414 28.7414 15.3763 28.7414 14.7383C28.7596 14.1003 28.7687 13.4531 28.7687 12.7969V9.13281C28.7687 8.47656 28.7596 7.82031 28.7414 7.16406C28.7414 6.48958 28.7323 5.86068 28.7141 5.27734C28.7141 4.67578 28.7049 4.14714 28.6867 3.69141C28.6867 3.21745 28.6776 2.85286 28.6594 2.59766L26.6359 2.32422L26.5812 1.25781L31.3117 0L31.9953 0.4375C31.9589 0.984375 31.9315 1.53125 31.9133 2.07812C31.8951 2.60677 31.8768 3.17188 31.8586 3.77344C31.8404 4.375 31.8312 5.05859 31.8312 5.82422C31.8312 6.57161 31.8312 7.4375 31.8312 8.42188L31.8039 14.793C31.8039 15.2487 31.813 15.6589 31.8312 16.0234C31.8495 16.388 31.8677 16.6888 31.8859 16.9258C31.9042 17.1628 31.9133 17.3268 31.9133 17.418L33.6086 17.8555L33.5266 19.0312H27.1281ZM41.1008 19.0312H36.9992C36.7076 18.6302 36.4432 18.3021 36.2062 18.0469C35.9875 17.7734 35.7687 17.5182 35.55 17.2812L32.132 13.5352H31.4211L31.4484 12.6328L32.3508 12.4141L36.343 8.61328L34.5383 8.3125L34.6203 7.10938H40.4719L40.5539 8.3125L38.7492 8.64062L34.0734 12.6328L34.3742 11.4844L38.5031 16.0234C38.813 16.3698 39.1138 16.6888 39.4055 16.9805C39.6971 17.2539 39.9159 17.4635 40.0617 17.6094L41.1828 17.8555L41.1008 19.0312Z" fill="currentColor"/>
<path d="M45.0687 19.0312L44.9867 17.7734L46.3812 17.3633L51.9594 3.66406L54.0102 2.48828L60.1898 17.3633L61.5844 17.7734L61.5023 19.0312H54.8031L54.7211 17.7734L56.4437 17.3633L54.9125 13.6445L54.6117 12.7422L51.7953 5.96094L52.5336 5.98828L50.0727 12.6875L49.7992 13.5078L48.4594 17.3633L50.182 17.7734L50.1 19.0312H45.0687ZM49.225 14.2461V12.5234C49.5714 12.5417 49.9906 12.569 50.4828 12.6055C50.9932 12.6237 51.6404 12.6328 52.4242 12.6328C53.1898 12.6328 53.8279 12.6237 54.3383 12.6055C54.8669 12.569 55.2953 12.5417 55.6234 12.5234V14.2188C55.1859 14.2188 54.7029 14.2096 54.1742 14.1914C53.6638 14.1732 53.0805 14.1641 52.4242 14.1641C51.768 14.1641 51.1846 14.1732 50.6742 14.1914C50.1638 14.2096 49.6807 14.2279 49.225 14.2461Z" fill="currentColor"/>
<path d="M61.3125 19.0312L61.2305 17.8281L63.0078 17.418C63.0443 17.2539 63.0716 16.9349 63.0898 16.4609C63.1081 15.987 63.1263 15.4128 63.1445 14.7383C63.1628 14.0456 63.1719 13.3255 63.1719 12.5781V9.13281C63.1719 8.49479 63.1628 7.84766 63.1445 7.19141C63.1445 6.51693 63.1354 5.87891 63.1172 5.27734C63.1172 4.67578 63.1081 4.14714 63.0898 3.69141C63.0716 3.21745 63.0534 2.85286 63.0352 2.59766L61.0117 2.32422L60.957 1.25781L65.7422 0L66.4258 0.4375C66.4076 1.20312 66.3802 1.95964 66.3438 2.70703C66.3255 3.4362 66.3073 4.25651 66.2891 5.16797C66.2891 6.07943 66.2891 7.19141 66.2891 8.50391L66.2617 12.6602C66.2617 13.8633 66.2708 14.9206 66.2891 15.832C66.3255 16.7253 66.362 17.2539 66.3984 17.418L68.1758 17.8281L68.1211 19.0312H61.3125Z" fill="currentColor"/>
<path d="M68.5328 19.0312L68.4508 17.8281L70.2828 17.418C70.301 17.3451 70.3193 17.1901 70.3375 16.9531C70.3557 16.7161 70.374 16.4062 70.3922 16.0234C70.4104 15.6224 70.4195 15.1576 70.4195 14.6289L70.4469 12.5508C70.4469 11.9857 70.4286 11.4661 70.3922 10.9922C70.3557 10.5 70.2919 10.0443 70.2008 9.625L68.3688 9.24219V8.12109L73.0445 6.94531L73.6734 7.41016C73.6188 7.97526 73.5732 8.54948 73.5367 9.13281C73.5185 9.69792 73.5094 10.3542 73.5094 11.1016V14.5469C73.5094 15.2214 73.5185 15.832 73.5367 16.3789C73.5732 16.9258 73.6188 17.2721 73.6734 17.418L75.5055 17.8281L75.4234 19.0312H68.5328ZM72.0055 4.40234C71.3674 4.40234 70.857 4.21094 70.4742 3.82812C70.0914 3.42708 69.9 2.95312 69.9 2.40625C69.9 1.8776 70.0914 1.41276 70.4742 1.01172C70.857 0.610677 71.3674 0.410156 72.0055 0.410156C72.6435 0.410156 73.1448 0.610677 73.5094 1.01172C73.874 1.41276 74.0563 1.8776 74.0563 2.40625C74.0563 2.95312 73.874 3.42708 73.5094 3.82812C73.1448 4.21094 72.6435 4.40234 72.0055 4.40234Z" fill="currentColor"/>
</svg>
