<svg width="36" height="36" viewBox="0 0 36 36" fill="none" xmlns="http://www.w3.org/2000/svg">
<path d="M16.9131 18.1465L14.4229 24.2168H19.3477L20.9629 28.2979L8.8125 28.2803L14.915 13.1621L16.9131 18.1465Z" fill="currentColor"/>
<path d="M26.999 28.2793H22.0176L16.0752 13.4092C16.0463 13.3366 16.0199 13.2611 15.9941 13.1836C15.8668 12.7803 15.7826 12.3645 15.7432 11.9434C15.6212 10.9049 15.7339 9.8521 16.0732 8.86328L16.1348 8.71582L17.6055 5L26.999 28.2793Z" fill="currentColor"/>
<path fill-rule="evenodd" clip-rule="evenodd" d="M18 0C27.9411 0 36 8.05888 36 18C36 27.9411 27.9411 36 18 36C8.05888 36 0 27.9411 0 18C0 8.05888 8.05888 0 18 0ZM18 1.5C8.8873 1.5 1.5 8.8873 1.5 18C1.5 27.1127 8.8873 34.5 18 34.5C27.1127 34.5 34.5 27.1127 34.5 18C34.5 8.8873 27.1127 1.5 18 1.5Z" fill="currentColor"/>
</svg>
