<svg width="125" height="28" viewBox="0 0 125 28" fill="none" xmlns="http://www.w3.org/2000/svg">
<path d="M59.9256 15.7992L56.9108 23.0945H62.8731L64.8303 28L50.1188 27.9781L57.5075 9.80957L59.9256 15.7992Z" fill="currentColor"/>
<path d="M72.1381 27.9781H66.1059L58.912 10.1062C58.877 10.0191 58.8458 9.92863 58.8146 9.83555C58.6604 9.35087 58.5578 8.85143 58.5101 8.34531C58.3625 7.09726 58.4997 5.83139 58.9106 4.64297L58.9847 4.46523L60.765 0L72.1381 27.9781Z" fill="currentColor"/>
<path fill-rule="evenodd" clip-rule="evenodd" d="M6.46013 6.64453C7.33746 6.61468 8.2137 6.73247 9.05103 6.99453C9.66366 7.21143 10.2301 7.5417 10.7202 7.9666C11.248 8.43867 11.681 9.00605 11.9958 9.63867C12.325 10.301 12.4921 11.0314 12.4841 11.7701C12.4857 12.3923 12.3561 13.0079 12.1042 13.5775C11.9024 14.0711 11.6185 14.5279 11.2634 14.927C12.1267 15.3534 12.844 16.0241 13.3249 16.8547C13.8508 17.7319 14.1233 18.7375 14.1122 19.7586C14.119 20.5344 13.9573 21.3026 13.6376 22.0104C13.3313 22.6879 12.9034 23.3055 12.3757 23.8314C11.8176 24.3749 11.1518 24.7975 10.4212 25.0729C9.4543 25.4091 8.43309 25.5642 7.40926 25.5309H0V6.6459L6.46013 6.64453ZM3.66485 22.2934H7.32833C7.84488 22.3123 8.36044 22.2342 8.84804 22.0637C9.19696 21.9316 9.51247 21.7243 9.77111 21.4566C10.2073 20.9862 10.45 20.3697 10.45 19.7299C10.4499 19.0902 10.2073 18.4734 9.77111 18.0031C9.51231 17.736 9.19667 17.5295 8.84804 17.3975C8.36043 17.2271 7.84483 17.149 7.32833 17.1678H3.66485V22.2934ZM3.66485 13.9275H6.24342C6.68559 13.9493 7.12755 13.8853 7.54504 13.7389C7.81772 13.6242 8.06607 13.4596 8.27746 13.2535C8.44246 13.07 8.57581 12.86 8.67111 12.6328C8.76948 12.4027 8.82054 12.1555 8.82061 11.9055C8.82061 11.6552 8.76962 11.4071 8.67111 11.1768C8.57565 10.9497 8.44231 10.7397 8.27746 10.5561C8.06602 10.3501 7.81761 10.1855 7.54504 10.0707C7.23172 9.96094 6.90462 9.89774 6.57397 9.88203H3.66485V13.9275Z" fill="currentColor"/>
<path d="M124.73 9.88477L116.994 9.8834V13.7963H122.829V17.0338H116.994V22.2947H125V25.5322H113.331V6.6459H124.73V9.88477Z" fill="currentColor"/>
<path d="M31.2514 22.2934H39.2573V25.5309H27.5879V6.6459H31.2514V22.2934Z" fill="currentColor"/>
<path fill-rule="evenodd" clip-rule="evenodd" d="M89.409 6.6418C90.6995 6.61297 91.9875 6.76711 93.2343 7.0998C94.21 7.37877 95.129 7.8264 95.9486 8.42187C97.1226 9.28328 98.073 10.4115 98.7179 11.7127C99.3786 13.076 99.7218 14.5703 99.7218 16.0836C99.7218 17.5969 99.3786 19.0912 98.7179 20.4545C98.0733 21.7559 97.1228 22.8841 95.9486 23.7453C95.1293 24.3414 94.2102 24.789 93.2343 25.0674C91.9876 25.4003 90.6995 25.5544 89.409 25.5254H83.4385V6.6459L89.409 6.6418ZM89.8163 9.8834H87.1033V22.2934H90.188C91.0543 22.2716 91.9093 22.084 92.7062 21.7396C93.4765 21.3834 94.1515 20.8508 94.6744 20.1852C95.1184 19.6272 95.463 18.997 95.6922 18.323C95.9087 17.6925 96.0305 17.0341 96.0543 16.3693L96.0584 16.0918C96.0633 15.3304 95.9395 14.573 95.6922 13.8523C95.4629 13.1786 95.1184 12.548 94.6744 11.9902C94.1514 11.325 93.4762 10.7921 92.7062 10.4357C91.7956 10.0427 90.8086 9.85438 89.8163 9.8834Z" fill="currentColor"/>
</svg>
